# xmcd
#
# Track frame offsets:
#	150
#	12142
#	24592
#	36380
#	46752
#	58320
#	68485
#	79245
#	90507
#	102190
#	113872
#	126837
#	136582
#	147840
#	160920
#	173757
#	185377
#	195155
#	208062
#	220000
#	231887
#	243017
#	254190
#	265822
#	276077
#	287687
#	299370
#	310945
#	321335
#	332450
#	343092
#
# Disc length: 4714 seconds
#
# Revision: 2
# Processed by: cddbd v1.5.2PL0 Copyright (c) Steve Scherf et al.
# Submitted via: EasyCDDAExtractor 2010.6.0.0
#
DISCID=c212681f
DTITLE=Various Artist - Are You Mine
DYEAR=1900
DGENRE=Country
TTITLE0=Tom Tall and Ginny Wright - Are You Mine
TTITLE1=Tom Tall - Goldie Jo Malone
TTITLE2=Ginny Wright - I Want You Yes
TTITLE3=Tom Tall and Ginny Wright - Out Of Line
TTITLE4=Ginny Wright - I Saw Esau
TTITLE5=Tom Tall - If You Don't Care
TTITLE6=Tom Tall - Underway
TTITLE7=Ginny Wright - Turn Around My Darlin'
TTITLE8=Tom Tall and Ginny Wright - Come With Me
TTITLE9=Tom Tall - Why Must I Wonder
TTITLE10=Ginny Wright - How To Get Married
TTITLE11=Tom Tall and Ginny Wright - Boom Boom Boomerang
TTITLE12=Ginny Wright - I've Got Somebody New
TTITLE13=Tom Tall - Remembering You
TTITLE14=Ginny Wright - Whirlwind
TTITLE15=Ginny Wright - I Could Still Tell You More
TTITLE16=Tom Tall - Give Me A Change
TTITLE17=Tom Tall and The Creel Sisters - Whose Little Pidgeon Are You
TTITLE18=Tom Tall and Ginny Wright - Will This Dream Of Mine Came True
TTITLE19=Ginny Wright - Where Were You
TTITLE20=Ginny Wright - Indian Moon
TTITLE21=Tom Tall - I Want To Talk With You
TTITLE22=Tom Tall - You Loved Another One Better Than Me
TTITLE23=Tom Tall - Please Be Careful
TTITLE24=Tom Tall - I Gave My Heart To Two People
TTITLE25=Tom Tall and The Creel Sisters - Hot Rod Is Her Name
TTITLE26=Ginny Wright - My Chihuahua Dog
TTITLE27=Ginny Wright - Your Eyes Feasted Upon Her
TTITLE28=Ginny Wright - Please Leave My Darlin' Alone
TTITLE29=Tom Tall and Ruckus Tyler - Don't You Know, Don't You Know
TTITLE30=Tom Tall and Ruckus Tyler - If You Know What I Know
EXTD=
EXTT0=
EXTT1=
EXTT2=
EXTT3=
EXTT4=
EXTT5=
EXTT6=
EXTT7=
EXTT8=
EXTT9=
EXTT10=
EXTT11=
EXTT12=
EXTT13=
EXTT14=
EXTT15=
EXTT16=
EXTT17=
EXTT18=
EXTT19=
EXTT20=
EXTT21=
EXTT22=
EXTT23=
EXTT24=
EXTT25=
EXTT26=
EXTT27=
EXTT28=
EXTT29=
EXTT30=
PLAYORDER=
